<?xml version="1.0" encoding="utf-8"?>
<!-- Svg Vector Icons : http://www.onlinewebfonts.com/icon -->
<!DOCTYPE svg PUBLIC "-//W3C//DTD SVG 1.1//EN" "http://www.w3.org/Graphics/SVG/1.1/DTD/svg11.dtd">
<svg version="1.1" xmlns="http://www.w3.org/2000/svg" xmlns:xlink="http://www.w3.org/1999/xlink" x="0px" y="0px" viewBox="0 0 1000 1000" enable-background="new 0 0 1000 1000" xml:space="preserve">
<metadata> Svg Vector Icons : http://www.onlinewebfonts.com/icon </metadata>
<g><path d="M901.8,381.3c3.4-110-108.5-357.2-390.2-370.8C272.6,8.9,116.5,205.3,106.3,367.8c-72.9,17-128.9,130.4-74.7,201.5c22.1,28.8,40.8,50.9,122.2,81.3l101.7,330.1c0,0,6.8,6.8,20.4,8.4c37.3-3.4,447.7,0,447.7,0s25.4,5,35.6-23.7c10.2-28.8,96.7-338.6,96.7-338.6s122.1-1.7,133.9-106.7C991.6,442.3,959.4,408.4,901.8,381.3L901.8,381.3z M323.4,926.4c-13.4,4.1-27.7-3.9-32-18l-58.5-191.7c-4.3-13.9,3.2-28.6,16.5-32.6c13.4-4.1,27.7,3.9,31.9,18L340,893.7C344.2,907.7,336.8,922.3,323.4,926.4L323.4,926.4z M445.4,930.9c-13.9,1.7-26.6-8.5-28.4-23.1l-25.3-198.9c-1.8-14.5,8-27.7,21.8-29.4c13.9-1.7,26.6,8.5,28.4,23.1l25.3,198.8C469.1,915.9,459.3,929.1,445.4,930.9L445.4,930.9z M611.6,708.9l-25.3,198.9c-1.8,14.6-14.7,24.7-28.5,23.1c-13.9-1.7-23.6-15-21.8-29.5l25.4-198.8c1.8-14.6,14.7-24.8,28.4-23.1C603.6,681.3,613.4,694.4,611.6,708.9L611.6,708.9z M770.3,716.7l-58.5,191.8c-4.3,14-18.6,22-32,18c-13.4-4-20.8-18.7-16.5-32.7L721.8,702c4.3-14,18.6-22,32-18C767.2,688.1,774.5,702.7,770.3,716.7L770.3,716.7z M941.1,519.4c-10.6,35.4-57.9,93.9-134.3,23c-10.6-7.1-19.6-10.6-40.9,10.7c-21.3,21.3-31.9,89.9-127.8,86.3c-53.3-3.5-97.8-49-119.1-77.4c-12.4-17.7-37.3-21.3-53.3,1.8c-15.9,23-74.6,79.8-152.7,8.8c-14.3-19.5-39.2-26.6-64,0c-24.8,26.7-118.2,50.6-170.2-23C51.1,510.6,62.4,429,135.3,413l7.1-10.6c0,0,22.8-324.5,365.5-342.3c247,13.5,341.5,186.2,357.5,367.1C929.3,443.2,951.7,484,941.1,519.4L941.1,519.4z M520.1,196.8c0-16.9-13.6-30.5-30.5-30.5c-16.9,0-30.6,13.6-30.6,30.5c0,16.8,13.7,30.5,30.6,30.5C506.4,227.2,520.1,213.6,520.1,196.8L520.1,196.8z M716.8,248.4c0-16.9-13.7-30.5-30.6-30.5c-16.9,0-30.5,13.6-30.5,30.5c0,16.8,13.7,30.5,30.6,30.5C703.1,278.8,716.8,265.2,716.8,248.4L716.8,248.4z M704.2,406.3c-16.9,0-30.6,13.6-30.6,30.5c0,16.9,13.7,30.5,30.6,30.5c16.9,0,30.6-13.6,30.6-30.5C734.7,419.9,721,406.3,704.2,406.3L704.2,406.3z M500.9,375.8c-16.9,0-30.6,13.6-30.6,30.5c0,16.8,13.7,30.5,30.6,30.5c16.9,0,30.6-13.7,30.6-30.5C531.5,389.4,517.8,375.8,500.9,375.8L500.9,375.8z M317,257.8c-16.9,0-30.6,13.6-30.6,30.5c0,16.9,13.7,30.5,30.6,30.5c16.9,0,30.6-13.6,30.6-30.5C347.5,271.5,333.8,257.8,317,257.8L317,257.8z M262.2,406.3c-16.9,0-30.6,13.6-30.6,30.5c0,16.9,13.7,30.5,30.6,30.5c16.9,0,30.6-13.6,30.6-30.5C292.8,419.9,279.1,406.3,262.2,406.3L262.2,406.3z"/></g>
</svg>